<svg xmlns="http://www.w3.org/2000/svg" width="217.68" height="38.19" viewBox="0 0 217.68 38.19" fill="#FFF"><g><path d="M6.67,18.13V29.94a14,14,0,0,0,.21,2.44,5.82,5.82,0,0,0,.75,2.05,4,4,0,0,0,1.5,1.41,5.09,5.09,0,0,0,2.46.52,5.09,5.09,0,0,0,2.46-.52,4,4,0,0,0,1.5-1.41,5.82,5.82,0,0,0,.75-2.05,14,14,0,0,0,.21-2.44V18.13h4.1V30.39a14.27,14.27,0,0,1-.52,4,8.38,8.38,0,0,1-1.62,3.1,7.17,7.17,0,0,1-2.8,2,10.65,10.65,0,0,1-4.08.71,10.64,10.64,0,0,1-4.08-.71,7.19,7.19,0,0,1-2.8-2,8.37,8.37,0,0,1-1.62-3.1,14.2,14.2,0,0,1-.52-4V18.13Z" transform="translate(-2.57 -2)"/><path d="M34.16,23a3.52,3.52,0,0,0-1.09-1.32,2.67,2.67,0,0,0-1.64-.55,2.3,2.3,0,0,0-1.55.59,1.9,1.9,0,0,0-.68,1.5,1.84,1.84,0,0,0,.43,1.21,5.05,5.05,0,0,0,1.12,1,10,10,0,0,0,1.57.84l1.85.8A16.39,16.39,0,0,1,36,28a7.08,7.08,0,0,1,1.57,1.25,5.82,5.82,0,0,1,1.09,1.66,5.48,5.48,0,0,1,.41,2.21,6.7,6.7,0,0,1-.59,2.8,7.15,7.15,0,0,1-3.92,3.74,7.61,7.61,0,0,1-2.83.52,8.32,8.32,0,0,1-2.3-.32,8.46,8.46,0,0,1-2.12-.93,7.63,7.63,0,0,1-1.78-1.5,6.31,6.31,0,0,1-1.19-2l3.51-1.59a6.86,6.86,0,0,0,1.53,2,3.44,3.44,0,0,0,2.35.78A3.39,3.39,0,0,0,34,35.73a2.74,2.74,0,0,0,1-2.19,2.09,2.09,0,0,0-.39-1.34,5.26,5.26,0,0,0-1.12-1l-4-2.14a15.47,15.47,0,0,1-1.66-1A6.69,6.69,0,0,1,26.5,27a4.43,4.43,0,0,1-.84-1.41,5.42,5.42,0,0,1-.3-1.89,5.94,5.94,0,0,1,.5-2.42,6.45,6.45,0,0,1,1.34-2,6.12,6.12,0,0,1,2-1.32,6.29,6.29,0,0,1,2.46-.48,6.11,6.11,0,0,1,3.46,1,6.94,6.94,0,0,1,2.37,2.74Z" transform="translate(-2.57 -2)"/><path d="M45.55,29.48A7.79,7.79,0,0,0,46,32.12a7,7,0,0,0,1.3,2.26,6.44,6.44,0,0,0,2,1.57,5.81,5.81,0,0,0,2.64.59,5.93,5.93,0,0,0,3.78-1.12,11.62,11.62,0,0,0,2.6-3l3.46,2a10.82,10.82,0,0,1-4.12,4.31,11.24,11.24,0,0,1-5.77,1.53,10.68,10.68,0,0,1-4.4-.87A9.56,9.56,0,0,1,44.25,37a10.57,10.57,0,0,1-2.07-3.56A13.1,13.1,0,0,1,41.45,29a15.13,15.13,0,0,1,.66-4.56,10.56,10.56,0,0,1,2-3.65,8.9,8.9,0,0,1,3.24-2.42,11,11,0,0,1,4.53-.87,10.19,10.19,0,0,1,4.42.89,8.7,8.7,0,0,1,3.1,2.41,10.37,10.37,0,0,1,1.85,3.6,15.56,15.56,0,0,1,.61,4.44v.64Zm12.17-3.1a6.53,6.53,0,0,0-1.89-3.87,5.54,5.54,0,0,0-4-1.46,5.78,5.78,0,0,0-4.06,1.5,6.37,6.37,0,0,0-2,3.83Z" transform="translate(-2.57 -2)"/><path d="M81.24,36.14h-.09A9.72,9.72,0,0,1,78,39.08a7.94,7.94,0,0,1-4.15,1.12,9.84,9.84,0,0,1-4.37-.93,9.38,9.38,0,0,1-3.21-2.53,11,11,0,0,1-2-3.69,14.5,14.5,0,0,1-.66-4.38,12.72,12.72,0,0,1,.71-4.22,11,11,0,0,1,2-3.56,10,10,0,0,1,3.15-2.46,9.13,9.13,0,0,1,4.17-.93A8.06,8.06,0,0,1,78,18.63a10,10,0,0,1,3.15,3.05h.09V2h4.1V39.46h-4.1Zm-6.7.41a6.73,6.73,0,0,0,3-.62,6.39,6.39,0,0,0,2.16-1.69A7.46,7.46,0,0,0,81,31.78a9.57,9.57,0,0,0,.46-3A9.42,9.42,0,0,0,81,25.86a7.21,7.21,0,0,0-1.34-2.44,6.47,6.47,0,0,0-2.19-1.66,6.79,6.79,0,0,0-2.94-.62,6.17,6.17,0,0,0-2.85.64,6.44,6.44,0,0,0-2.12,1.71,7.7,7.7,0,0,0-1.32,2.44,9,9,0,0,0-.46,2.87,9.23,9.23,0,0,0,.46,2.9,8.19,8.19,0,0,0,1.3,2.48,6.11,6.11,0,0,0,2.1,1.73A6.28,6.28,0,0,0,74.54,36.55Z" transform="translate(-2.57 -2)"/><path d="M106.35,24.19a7.81,7.81,0,0,0-6.11-2.87,6.45,6.45,0,0,0-2.8.62,7.37,7.37,0,0,0-2.26,1.64A7.6,7.6,0,0,0,93.68,26a7.52,7.52,0,0,0-.55,2.82,8.2,8.2,0,0,0,.55,3,7,7,0,0,0,3.85,4,7.57,7.57,0,0,0,3,.57,6.81,6.81,0,0,0,3.21-.75,9.3,9.3,0,0,0,2.62-2.07v5.24a10.78,10.78,0,0,1-2.85,1.09,13.9,13.9,0,0,1-3,.32A11.69,11.69,0,0,1,96,39.35a11.15,11.15,0,0,1-6.08-5.9A10.89,10.89,0,0,1,89,29a11.73,11.73,0,0,1,.89-4.58,10.9,10.9,0,0,1,2.46-3.65,11.44,11.44,0,0,1,3.71-2.39,12.18,12.18,0,0,1,4.6-.87,13,13,0,0,1,2.94.34,9.48,9.48,0,0,1,2.71,1.07Z" transform="translate(-2.57 -2)"/><path d="M130.79,39.46h-4.1V36.14h-.09a9.81,9.81,0,0,1-3.08,2.94,7.91,7.91,0,0,1-4.17,1.12,9.7,9.7,0,0,1-4.35-.93,9.43,9.43,0,0,1-3.19-2.53,11.31,11.31,0,0,1-2-3.69,14,14,0,0,1-.68-4.38,12.72,12.72,0,0,1,.71-4.22,11,11,0,0,1,2-3.56A10,10,0,0,1,115,18.43a9.27,9.27,0,0,1,4.19-.93,8,8,0,0,1,4.24,1.14,10,10,0,0,1,3.15,3.05h.09V18.13h4.1ZM120,36.55a6.73,6.73,0,0,0,3-.62,6.39,6.39,0,0,0,2.16-1.69,7.46,7.46,0,0,0,1.34-2.46,9.57,9.57,0,0,0,.46-3,9.42,9.42,0,0,0-.46-2.94,7.21,7.21,0,0,0-1.34-2.44,6.47,6.47,0,0,0-2.19-1.66,6.79,6.79,0,0,0-2.94-.62,6.17,6.17,0,0,0-2.85.64A6.44,6.44,0,0,0,115,23.49a7.7,7.7,0,0,0-1.32,2.44,9,9,0,0,0-.46,2.87,9.23,9.23,0,0,0,.46,2.9,8.19,8.19,0,0,0,1.3,2.48,6.11,6.11,0,0,0,2.1,1.73A6.28,6.28,0,0,0,120,36.55Z" transform="translate(-2.57 -2)"/><path d="M140.49,21.6h.14a6.73,6.73,0,0,1,2.28-3,5.88,5.88,0,0,1,3.55-1.09,5.68,5.68,0,0,1,1.76.27,6.88,6.88,0,0,1,1.62.78L148,22.28a3,3,0,0,0-1.16-.68,4.75,4.75,0,0,0-1.34-.18,4.5,4.5,0,0,0-2.64.71,4.42,4.42,0,0,0-1.5,1.8,8.1,8.1,0,0,0-.66,2.44,22,22,0,0,0-.16,2.62V39.46h-4.1V18.13h4.1Z" transform="translate(-2.57 -2)"/><path d="M159.68,23a3.52,3.52,0,0,0-1.09-1.32,2.67,2.67,0,0,0-1.64-.55,2.3,2.3,0,0,0-1.55.59,1.9,1.9,0,0,0-.68,1.5,1.84,1.84,0,0,0,.43,1.21,5.05,5.05,0,0,0,1.12,1,10,10,0,0,0,1.57.84l1.85.8a16.39,16.39,0,0,1,1.85.93,7.08,7.08,0,0,1,1.57,1.25,5.82,5.82,0,0,1,1.09,1.66,5.48,5.48,0,0,1,.41,2.21,6.7,6.7,0,0,1-.59,2.8,7.15,7.15,0,0,1-3.92,3.74,7.61,7.61,0,0,1-2.83.52,8.32,8.32,0,0,1-2.3-.32,8.46,8.46,0,0,1-2.12-.93,7.63,7.63,0,0,1-1.78-1.5,6.31,6.31,0,0,1-1.19-2l3.51-1.59a6.86,6.86,0,0,0,1.53,2,3.44,3.44,0,0,0,2.35.78,3.39,3.39,0,0,0,2.28-.82,2.74,2.74,0,0,0,1-2.19,2.09,2.09,0,0,0-.39-1.34,5.26,5.26,0,0,0-1.12-1l-4-2.14a15.47,15.47,0,0,1-1.66-1A6.69,6.69,0,0,1,152,27a4.43,4.43,0,0,1-.84-1.41,5.42,5.42,0,0,1-.3-1.89,5.94,5.94,0,0,1,.5-2.42,6.45,6.45,0,0,1,1.34-2,6.12,6.12,0,0,1,2-1.32,6.29,6.29,0,0,1,2.46-.48,6.11,6.11,0,0,1,3.46,1A6.94,6.94,0,0,1,163,21.23Z" transform="translate(-2.57 -2)"/><path d="M170.52,37.12a1.46,1.46,0,0,1,1.09.46,1.5,1.5,0,0,1,.45,1.07,1.54,1.54,0,0,1-3.08,0,1.5,1.5,0,0,1,.45-1.07A1.46,1.46,0,0,1,170.52,37.12Z" transform="translate(-2.57 -2)"/><path d="M185.71,30.89a4.55,4.55,0,0,0-3.55-1.67,3.75,3.75,0,0,0-1.63.36,4.29,4.29,0,0,0-1.31,1,4.42,4.42,0,0,0-.87,1.39,4.37,4.37,0,0,0-.32,1.64,4.77,4.77,0,0,0,.32,1.76,4.05,4.05,0,0,0,2.24,2.31,4.4,4.4,0,0,0,1.74.33,4,4,0,0,0,1.87-.44,5.41,5.41,0,0,0,1.52-1.21v3a6.27,6.27,0,0,1-1.66.64,8.09,8.09,0,0,1-1.76.19,6.8,6.8,0,0,1-2.59-.49,6.49,6.49,0,0,1-3.54-3.43,6.33,6.33,0,0,1-.53-2.6,6.83,6.83,0,0,1,.52-2.66,6.34,6.34,0,0,1,1.43-2.12,6.65,6.65,0,0,1,2.16-1.39,7.08,7.08,0,0,1,2.68-.5,7.59,7.59,0,0,1,1.71.2,5.52,5.52,0,0,1,1.58.62Z" transform="translate(-2.57 -2)"/><path d="M194.3,27a6.75,6.75,0,0,1,2.6.5A6.42,6.42,0,0,1,199,28.89a6.62,6.62,0,0,1,1.4,2.09,6.85,6.85,0,0,1,0,5.22A6.62,6.62,0,0,1,199,38.3a6.4,6.4,0,0,1-2.11,1.39,7,7,0,0,1-5.21,0,6.42,6.42,0,0,1-2.09-1.39,6.69,6.69,0,0,1,0-9.41,6.44,6.44,0,0,1,2.09-1.39A6.71,6.71,0,0,1,194.3,27Zm0,2.28a4.08,4.08,0,0,0-1.66.34,4.35,4.35,0,0,0-2.59,4,4.2,4.2,0,0,0,.33,1.66,4.54,4.54,0,0,0,.9,1.38,4.18,4.18,0,0,0,1.35.94,4.15,4.15,0,0,0,3.31,0,4.2,4.2,0,0,0,1.35-.94,4.56,4.56,0,0,0,.9-1.38,4.2,4.2,0,0,0,.33-1.66,4.3,4.3,0,0,0-2.58-4A4.09,4.09,0,0,0,194.3,29.27Z" transform="translate(-2.57 -2)"/><path d="M205.4,28.92h.05a4.58,4.58,0,0,1,1.41-1.38,3.44,3.44,0,0,1,1.88-.56,3.69,3.69,0,0,1,2.09.58,4.88,4.88,0,0,1,1.48,1.62,4.37,4.37,0,0,1,1.6-1.6,4.32,4.32,0,0,1,2.21-.6,4.15,4.15,0,0,1,2,.44,3.37,3.37,0,0,1,1.26,1.18,4.93,4.93,0,0,1,.65,1.71,10.73,10.73,0,0,1,.19,2v7.42h-2.39v-7a12.15,12.15,0,0,0-.07-1.23,3.78,3.78,0,0,0-.31-1.18,2.23,2.23,0,0,0-.69-.87,2,2,0,0,0-1.25-.35,2.28,2.28,0,0,0-1.5.45,2.85,2.85,0,0,0-.82,1.13,4.88,4.88,0,0,0-.34,1.47q-.07.79-.07,1.51v6.1h-2.39V33.19q0-.61-.05-1.33a5.2,5.2,0,0,0-.27-1.32,2.4,2.4,0,0,0-.68-1,1.88,1.88,0,0,0-1.29-.41,2.39,2.39,0,0,0-1.51.44,2.69,2.69,0,0,0-.83,1.11,4.94,4.94,0,0,0-.35,1.48q-.07.81-.07,1.53v6.1H203V27.36h2.39Z" transform="translate(-2.57 -2)"/></g></svg>